# xmcd
#
# Track frame offsets: 
#        150
#        13292
#        26767
#        40223
#        54324
#        68002
#        81852
#        95568
#        108827
#        122111
#        135711
#        149575
#        163554
#        176127
#        189927
#        203841
#        217906
#        231389
#        244798
#        258376
#
# Disc length: 3623 seconds
#
# Revision: 0
# Processed by: cddbd v1.5.2PL0 Copyright (c) Steve Scherf et al.
# Submitted via: ExactAudioCopy v1.1
#
DISCID=1f0e2514
DTITLE=Various Artist - Eurovision Song Contest 2019 - Dare To Dream -  CD 2
DYEAR=2019
DGENRE=Pop
TTITLE0=Sarah McTernan - 22 (Ireland)
TTITLE1=Kobi Marimi - Home (Israel)
TTITLE2=Hatari - Hatrio Mun Sigra (Iceland)
TTITLE3=Mahmood - Soldi (Italy)
TTITLE4=Jurij Veklenko - Run With The Lions (Lithuania)
TTITLE5=Carousel - That Night (Latvia)
TTITLE6=Anna Odobescu - Stay (Moldova)
TTITLE7=D Mol - Heaven (Montenegro)
TTITLE8=Tamara Todevska - Proud (North Macadonia)
TTITLE9=Michela - Chameleon (Malta)
TTITLE10=Duncan Laurence - Arcade (The Netherlands)
TTITLE11=KEiiNO - Spirit In The Sky (Norway) - Various
TTITLE12=Tulia - Fire Of Love (Pali Sie) (Poland)
TTITLE13=Conan Osiris - Telemoveis (Portugal)
TTITLE14=Ester Peony - On A Sunday (Romania)
TTITLE15=Nevena Bozovic - Kruna (Serbia)
TTITLE16=Sergey Lazarev - Scream (Russia)
TTITLE17=John Lundvik - Too Late For Love (Sweden)
TTITLE18=Zala Kralj and Gasper Santl - Sebi (Slovenia)
TTITLE19=Serhat - Say Na Na Na (San Marino)
EXTD=
EXTT0=
EXTT1=
EXTT2=
EXTT3=
EXTT4=
EXTT5=
EXTT6=
EXTT7=
EXTT8=
EXTT9=
EXTT10=
EXTT11=
EXTT12=
EXTT13=
EXTT14=
EXTT15=
EXTT16=
EXTT17=
EXTT18=
EXTT19=
PLAYORDER=
